# xmcd
# Copyright (C) 1995-1998 Ti Kan
#
# Track frame offsets:
#       150
#       19565
#       34802
#       53242
#       74224
#       99467
#       113769
#       129887
#       145304
#       180137
#       202172
#
# Disc length: 2977 seconds
#
# Revision: 0
# Processed by: cddbd v1.5.2PL0 Copyright (c) Steve Scherf et al.
# Submitted via: CD-Import v1.0
#
DISCID=980b9f0b
DTITLE=Triggerfinger - What Grabs Ya?
DYEAR=2009
DGENRE=
TTITLE0=Short Term Memory Love
TTITLE1=First Taste
TTITLE2=Soon
TTITLE3=Halfway Town
TTITLE4=Scream
TTITLE5=Is It
TTITLE6=All My Floating
TTITLE7=What Grabs Ya
TTITLE8=Lines
TTITLE9=No Teasin' Around
TTITLE10=Soon
EXTD=
EXTT0=
EXTT1=
EXTT2=
EXTT3=
EXTT4=
EXTT5=
EXTT6=
EXTT7=
EXTT8=
EXTT9=
EXTT10=
PLAYORDER=
